# xmcd
#
# Track frame offsets: 
#        150
#        23537
#        54196
#        78746
#        109140
#        132564
#        163305
#        205179
#
# Disc length: 4440 seconds
#
# Revision: 1
# Processed by: cddbd v1.5.2PL0 Copyright (c) Steve Scherf et al.
# Submitted via: ExactAudioCopyFreeDBPlugin 1.0
#
DISCID=68115608
DTITLE=エイジア エンジニア - Oh! Deluxe Maxi
DYEAR=2005
DGENRE=Hip Hop
TTITLE0=Deluxe Encounter
TTITLE1=Oh! Wonderful Life
TTITLE2=言葉のハイウェイ DX
TTITLE3=Grooving Loop ＜READYMADE WEEKEND MIX '05＞
TTITLE4=Deluxe Encounter (デラックス・カラオケバージョン)
TTITLE5=Oh! Wonderful Life (ワンダフル・カラオケバージョン)
TTITLE6=Grooving Loop ＜READYMADE WEEKEND MIX '05＞ （レディーメイド・ウィークエンド・インス
TTITLE6=トルメンタル）
TTITLE7=CCCD data track
EXTD=YEAR: 2005/05/11
EXTT0=
EXTT1=
EXTT2=
EXTT3=
EXTT4=
EXTT5=
EXTT6=
EXTT7=
PLAYORDER=
